<svg width="134" height="23" viewBox="0 0 134 23" fill="none" xmlns="http://www.w3.org/2000/svg">
<g clip-path="url(#clip0_457_98459)">
<path d="M53.5565 1.76872H50.736V8.75453H48.7217V1.76872H45.9176V0.143799H53.5612L53.5565 1.76872Z" fill="white"/>
<path d="M61.3216 0.527195C61.8709 0.750585 62.3372 1.13262 62.658 1.62209C62.9787 2.11157 63.1386 2.68511 63.1163 3.26583C63.1298 3.85017 62.9673 4.42553 62.6489 4.92043C62.3261 5.40305 61.8632 5.78053 61.3193 6.00447C60.6759 6.26666 59.9833 6.39416 59.2863 6.37876H57.5103V8.75224H55.4703V0.146068H59.2956C59.991 0.131454 60.6816 0.261367 61.3216 0.527195ZM60.5738 4.3727C60.7327 4.23595 60.8574 4.06552 60.9384 3.87446C61.0194 3.6834 61.0545 3.47677 61.0412 3.2704C61.0553 3.06225 61.0205 2.85372 60.9395 2.6607C60.8585 2.46769 60.7335 2.2953 60.5738 2.15669C60.1667 1.8727 59.6709 1.7363 59.1718 1.77099H57.5103V4.76067H59.1718C59.6711 4.79471 60.167 4.6575 60.5738 4.3727Z" fill="white"/>
<path d="M70.6243 6.91278H66.5396L65.7592 8.75679H63.6677L67.5982 0.146057H69.6125L73.55 8.75679H71.4095L70.6243 6.91278ZM69.9817 5.39968L68.5796 2.1019L67.1776 5.39968H69.9817Z" fill="white"/>
<path d="M83.4322 0.146057V8.75679H81.3922V5.22623H77.387V8.75679H75.3469V0.146057H77.387V3.54197H81.3922V0.146057H83.4322Z" fill="white"/>
<path d="M87.9983 8.33232C87.2893 7.96689 86.6968 7.4182 86.2855 6.74619C85.8766 6.04731 85.6616 5.25634 85.6616 4.45144C85.6616 3.64655 85.8766 2.85558 86.2855 2.15669C86.6968 1.48469 87.2893 0.936001 87.9983 0.570563C88.6956 0.22813 89.4597 0.0351038 90.2395 0.00440406C91.0193 -0.0262957 91.7968 0.10604 92.52 0.392551C93.124 0.64715 93.6574 1.03826 94.0763 1.53365L92.7653 2.71355C92.4968 2.39373 92.1581 2.13699 91.7742 1.96238C91.3904 1.78776 90.9712 1.69973 90.5477 1.70482C90.038 1.69691 89.5349 1.81799 89.0873 2.05628C88.6654 2.28313 88.3184 2.62276 88.0871 3.03533C87.8507 3.47533 87.7272 3.96481 87.7272 4.46171C87.7272 4.95861 87.8507 5.44809 88.0871 5.88808C88.3192 6.29951 88.666 6.63822 89.0873 6.86486C89.5345 7.10413 90.0379 7.22527 90.5477 7.21632C90.9723 7.22137 91.3926 7.13216 91.7767 6.95545C92.1609 6.77873 92.4989 6.51911 92.7653 6.19618L94.0763 7.37608C93.6561 7.87312 93.12 8.26444 92.513 8.51718C91.8552 8.78515 91.1482 8.91874 90.4356 8.90972C89.5865 8.91979 88.7483 8.72124 87.9983 8.33232Z" fill="white"/>
<path d="M53.22 14.2021V22.8129H51.2034V15.8248H48.1819L48.1189 17.6209C48.1006 18.6162 47.9998 19.6083 47.8174 20.5877C47.7124 21.2285 47.4359 21.8308 47.0159 22.3336C46.8159 22.5407 46.5719 22.7026 46.301 22.8079C46.0302 22.9132 45.739 22.9593 45.4479 22.943C45.1082 22.9344 44.7704 22.8893 44.4408 22.8083L44.567 21.1218C44.6851 21.1568 44.8081 21.1737 44.9315 21.172C45.4199 21.172 45.7587 20.8913 45.9527 20.3298C46.1466 19.7684 46.2658 18.8875 46.3172 17.6916L46.4434 14.1976L53.22 14.2021Z" fill="white"/>
<path d="M57.793 22.3815C57.0788 22.0139 56.4821 21.4611 56.0685 20.784C55.6583 20.0901 55.4424 19.303 55.4424 18.5018C55.4424 17.7006 55.6583 16.9135 56.0685 16.2196C56.4821 15.5424 57.0788 14.9897 57.793 14.622C58.5587 14.2409 59.406 14.0422 60.2654 14.0422C61.1248 14.0422 61.972 14.2409 62.7377 14.622C63.4565 14.9966 64.0576 15.5549 64.4767 16.2373C64.8959 16.9196 65.1172 17.7004 65.1172 18.4961C65.1172 19.2918 64.8959 20.0726 64.4767 20.7549C64.0576 21.4373 63.4565 21.9955 62.7377 22.3701C61.972 22.7512 61.1248 22.9499 60.2654 22.9499C59.406 22.9499 58.5587 22.7512 57.793 22.3701V22.3815ZM61.6791 20.9118C62.0951 20.6823 62.4375 20.344 62.6676 19.935C62.904 19.4946 63.0275 19.0048 63.0275 18.5075C63.0275 18.0102 62.904 17.5204 62.6676 17.08C62.4375 16.671 62.0951 16.3327 61.6791 16.1032C61.2465 15.8727 60.7617 15.7519 60.2689 15.7519C59.7761 15.7519 59.2912 15.8727 58.8586 16.1032C58.4426 16.3327 58.1003 16.671 57.8702 17.08C57.6337 17.5204 57.5102 18.0102 57.5102 18.5075C57.5102 19.0048 57.6337 19.4946 57.8702 19.935C58.1003 20.344 58.4426 20.6823 58.8586 20.9118C59.2912 21.1423 59.7761 21.2631 60.2689 21.2631C60.7617 21.2631 61.2465 21.1423 61.6791 20.9118Z" fill="white"/>
<path d="M73.5079 15.8248H69.3017L69.3134 22.8129H67.285V14.2021H73.5079V15.8248Z" fill="white"/>
<path d="M75.396 14.2021H77.422V19.8118L81.6282 14.2021H83.542V22.8129H81.5277V17.2146L77.3215 22.8129H75.3937L75.396 14.2021Z" fill="white"/>
<path d="M88.0987 22.3884C87.3882 22.0198 86.7955 21.467 86.3858 20.7908C85.977 20.092 85.762 19.301 85.762 18.4961C85.762 17.6912 85.977 16.9002 86.3858 16.2013C86.7955 15.5251 87.3882 14.9723 88.0987 14.6038C88.8529 14.2153 89.695 14.0184 90.5476 14.031C91.2591 14.0211 91.9648 14.1555 92.6203 14.4258C93.2243 14.6804 93.7577 15.0715 94.1766 15.5669L92.8657 16.7468C92.5976 16.4266 92.2589 16.1696 91.8749 15.9949C91.491 15.8203 91.0716 15.7325 90.6481 15.738C90.1383 15.7291 89.6348 15.8502 89.1876 16.0895C88.7664 16.3162 88.4195 16.6549 88.1875 17.0663C87.951 17.5067 87.8275 17.9965 87.8275 18.4938C87.8275 18.9911 87.951 19.4809 88.1875 19.9213C88.4195 20.3328 88.7664 20.6715 89.1876 20.8981C89.6348 21.1374 90.1383 21.2585 90.6481 21.2496C91.0729 21.2543 91.4932 21.1648 91.8774 20.9877C92.2616 20.8105 92.5995 20.5505 92.8657 20.2271L94.1766 21.4093C93.7573 21.9071 93.2209 22.2986 92.6133 22.5504C91.9553 22.8205 91.2473 22.9549 90.5336 22.9452C89.687 22.9616 88.8498 22.7702 88.0987 22.3884Z" fill="white"/>
<path d="M102.79 15.8248H99.9696V22.8129H97.9553V15.8248H95.1511V14.2021H102.795L102.79 15.8248Z" fill="white"/>
<path d="M104.706 14.2021H106.732V19.8118L110.938 14.2021H112.852V22.8129H110.838V17.2146L106.632 22.8129H104.706V14.2021Z" fill="white"/>
<path d="M119.089 19.3416H117.687V22.8106H115.659V14.2021H117.687V17.6825H119.148L121.463 14.2021H123.618L120.734 18.3603L123.707 22.8129H121.388L119.089 19.3416Z" fill="white"/>
<path d="M131.079 20.9666H126.985L126.205 22.8129H124.115L128.044 14.2021H130.058L134 22.8129H131.86L131.079 20.9666ZM130.436 19.4557L129.034 16.158L127.632 19.4557H130.436Z" fill="white"/>
<path d="M22.3373 18.301V22.9703L37.2903 18.892V14.3117L22.3373 18.301Z" fill="white"/>
<path d="M0 5.11438V9.78604L14.953 5.70775V1.12738L0 5.11438Z" fill="white"/>
<path d="M0 18.3306V23L37.2902 12.1504V7.57007L0 18.3306Z" fill="white"/>
<path d="M0 11.8857V16.555L37.2902 5.70775V1.12738L0 11.8857Z" fill="white"/>
</g>
<defs>
<clipPath id="clip0_457_98459">
<rect width="134" height="23" fill="white"/>
</clipPath>
</defs>
</svg>
